<?xml version="1.0" encoding="UTF-8" standalone="no"?>
<!-- Created with Inkscape (http://www.inkscape.org/) -->

<svg
   xmlns:dc="http://purl.org/dc/elements/1.1/"
   xmlns:cc="http://creativecommons.org/ns#"
   xmlns:rdf="http://www.w3.org/1999/02/22-rdf-syntax-ns#"
   xmlns:svg="http://www.w3.org/2000/svg"
   xmlns="http://www.w3.org/2000/svg"
   xmlns:sodipodi="http://sodipodi.sourceforge.net/DTD/sodipodi-0.dtd"
   xmlns:inkscape="http://www.inkscape.org/namespaces/inkscape"
   width="780"
   height="180"
   id="svg2"
   version="1.1"
   inkscape:version="0.48.5 r10040"
   sodipodi:docname="dropbox-github-love.svg"
   inkscape:export-filename="/home/bworley/dropbox-github-love.png"
   inkscape:export-xdpi="90"
   inkscape:export-ydpi="90">
  <defs
     id="defs4" />
  <sodipodi:namedview
     id="base"
     pagecolor="#ffffff"
     bordercolor="#666666"
     borderopacity="1.0"
     inkscape:pageopacity="1"
     inkscape:pageshadow="2"
     inkscape:zoom="1.1153846"
     inkscape:cx="390"
     inkscape:cy="90"
     inkscape:document-units="px"
     inkscape:current-layer="layer1"
     showgrid="false"
     inkscape:window-width="1366"
     inkscape:window-height="746"
     inkscape:window-x="0"
     inkscape:window-y="0"
     inkscape:window-maximized="1" />
  <metadata
     id="metadata7">
    <rdf:RDF>
      <cc:Work
         rdf:about="">
        <dc:format>image/svg+xml</dc:format>
        <dc:type
           rdf:resource="http://purl.org/dc/dcmitype/StillImage" />
        <dc:title></dc:title>
      </cc:Work>
    </rdf:RDF>
  </metadata>
  <g
     inkscape:label="Layer 1"
     inkscape:groupmode="layer"
     id="layer1"
     transform="translate(0,-872.36218)">
    <path
       inkscape:connector-curvature="0"
       d="m 45.73588,943.88129 49.61736,30.6342 -34.35048,28.62541 -49.2156,-32.04037 z m 99.03384,55.74419 v 10.84752 l -49.2156,29.4288 v 0.1004 l -0.10044,-0.1004 -0.10044,0.1004 v -0.1004 L 46.23808,1010.473 v -10.84752 l 14.76468,9.64222 34.35048,-28.52493 v -0.20087 l 0.10044,0.10044 0.10044,-0.10044 v 0.20087 l 34.45092,28.52493 z m -83.76696,-114.90335 34.35048,28.6254 -49.61736,30.53376 -33.94872,-27.1188 z m 83.96784,59.15916 33.94872,27.21924 -49.11516,32.04037 -34.45092,-28.6254 z m -15.16644,-59.15916 49.11516,32.04036 -33.94872,27.1188 -49.61736,-30.53376 z"
       id="path3045"
       style="fill:#1466a9;fill-opacity:1;stroke-width:0.50000000000000000;stroke-miterlimit:4;stroke-dasharray:none;stroke:none;stroke-opacity:1" />
    <path
       inkscape:connector-curvature="0"
       d="m 392.78716,882.46204 c -45.24,0 -81.92,36.68001 -81.92,81.92001 0,36.19995 23.47008,66.89995 56.02496,77.72995 4.09504,0.7501 5.59008,-1.78 5.59008,-3.94 0,-1.9501 -0.075,-8.41 -0.11504,-15.25 -22.78,4.95 -27.59504,-9.66 -27.59504,-9.66 -3.72992,-9.46 -9.09504,-11.98 -9.09504,-11.98 -7.44496,-5.07997 0.5648,-4.97997 0.5648,-4.97997 8.22496,0.56992 12.5552,8.43997 12.5552,8.43997 7.31008,12.52 19.18,8.9 23.84,6.8 0.74464,-5.28 2.86464,-8.9 5.2,-10.94 -18.18496,-2.06989 -37.31488,-9.09997 -37.31488,-40.49003 0,-8.95008 3.19504,-16.24992 8.42496,-21.98496 -0.83504,-2.08 -3.65504,-10.41504 0.80992,-21.68992 0,0 6.87008,-2.2 22.52992,8.4 6.52992,-1.82496 13.53504,-2.72496 20.5,-2.75504 6.96,0.0301 13.96992,0.94 20.51008,2.76496 15.63008,-10.60992 22.51008,-8.4 22.51008,-8.4 4.48,11.28496 1.66,19.60992 0.82,21.68 5.24992,5.73504 8.42,13.03504 8.42,21.98496 0,31.47006 -19.16,38.39998 -37.40992,40.43003 2.95008,2.54 5.56,7.52 5.56,15.16 0,10.9502 -0.11008,19.78 -0.11008,22.4801 0,2.1799 1.48992,4.7299 5.64,3.9299 32.53008,-10.8499 55.98,-41.55 55.98,-77.72995 0,-45.24 -36.68,-81.92001 -81.92,-81.92001 z"
       id="path3055"
       style="fill:#333333;fill-opacity:1;stroke-width:0.50000000000000000;stroke-miterlimit:4;stroke-dasharray:none;stroke:none;stroke-opacity:1" />
    <path
       style="font-size:429.75283812999992961px;font-style:normal;font-weight:normal;line-height:125%;letter-spacing:0px;word-spacing:0px;fill:#df2020;fill-opacity:1;stroke:#ffffff;stroke-width:3;stroke-miterlimit:4;stroke-opacity:1;stroke-dasharray:none;font-family:Sans"
       d="m 665.26674,895.4255 c -24.21472,0 -42.64791,23.20984 -43.84311,43.84307 -2.21352,38.21297 43.39023,62.14123 71.2792,90.03023 24.76751,-27.8511 75.80349,-51.25176 73.89939,-90.03023 -1.01369,-20.6438 -19.63198,-43.84307 -43.8467,-43.84307 -10.99607,0 -21.04809,7.31759 -28.7444,14.00461 -7.69631,-6.68702 -17.74833,-14.00461 -28.74438,-14.00461 z"
       id="rect3011"
       inkscape:connector-curvature="0"
       sodipodi:nodetypes="sacascs" />
    <text
       xml:space="preserve"
       style="font-size:64px;font-style:italic;font-variant:normal;font-weight:bold;font-stretch:normal;line-height:125%;letter-spacing:0px;word-spacing:0px;fill:#000000;fill-opacity:1;stroke:none;font-family:FreeSans;-inkscape-font-specification:Sans Italic;stroke-width:1;stroke-miterlimit:4;stroke-dasharray:none;stroke-opacity:1"
       x="220.26216"
       y="983.73816"
       id="text4040"
       sodipodi:linespacing="125%"><tspan
         sodipodi:role="line"
         id="tspan4042"
         x="220.26216"
         y="983.73816"
         style="font-style:normal;font-weight:normal;stroke-width:1;stroke-miterlimit:4;stroke-dasharray:none;stroke:none;stroke-opacity:1">⋀</tspan></text>
    <text
       xml:space="preserve"
       style="font-size:64px;font-style:italic;font-variant:normal;font-weight:bold;font-stretch:normal;line-height:125%;letter-spacing:0px;word-spacing:0px;fill:#000000;fill-opacity:1;stroke:none;font-family:FreeSans;-inkscape-font-specification:Sans Italic"
       x="509.79364"
       y="978.04218"
       id="text4044"
       sodipodi:linespacing="125%"><tspan
         sodipodi:role="line"
         id="tspan4046"
         x="509.79364"
         y="978.04218"
         style="font-style:normal;font-weight:normal">⇔</tspan></text>
  </g>
</svg>
